<?xml version="1.0" encoding="UTF-8" standalone="no"?>
<!DOCTYPE svg PUBLIC "-//W3C//DTD SVG 1.1//EN" "http://www.w3.org/Graphics/SVG/1.1/DTD/svg11.dtd">
<svg width="100%" height="100%" viewBox="0 0 1000 200" version="1.1" xmlns="http://www.w3.org/2000/svg" xmlns:xlink="http://www.w3.org/1999/xlink" xml:space="preserve" xmlns:serif="http://www.serif.com/" style="fill-rule:evenodd;clip-rule:evenodd;">
    <g id="gnuplot_canvas">
        <rect x="0" y="0" width="1000" height="200" style="fill:none;"/>
        <g>
            <path d="M35,164L957.9,164" style="fill:none;fill-rule:nonzero;stroke:rgb(128,128,128);stroke-width:0.5px;stroke-dasharray:2,4;"/>
        </g>
        <g>
            <path d="M35,100L957.9,100" style="fill:none;fill-rule:nonzero;stroke:rgb(128,128,128);stroke-width:0.5px;stroke-dasharray:2,4;"/>
        </g>
        <g>
            <path d="M35,36.1L957.9,36.1" style="fill:none;fill-rule:nonzero;stroke:rgb(128,128,128);stroke-width:0.5px;stroke-dasharray:2,4;"/>
        </g>
        <g>
            <path d="M35,196L35,4.1" style="fill:none;fill-rule:nonzero;stroke:rgb(128,128,128);stroke-width:0.5px;stroke-dasharray:2,4;"/>
        </g>
        <g>
            <path d="M188.8,196L188.8,4.1" style="fill:none;fill-rule:nonzero;stroke:rgb(128,128,128);stroke-width:0.5px;stroke-dasharray:2,4;"/>
        </g>
        <g>
            <path d="M342.6,196L342.6,4.1" style="fill:none;fill-rule:nonzero;stroke:rgb(128,128,128);stroke-width:0.5px;stroke-dasharray:2,4;"/>
        </g>
        <g>
            <path d="M496.5,196L496.5,4.1" style="fill:none;fill-rule:nonzero;stroke:rgb(128,128,128);stroke-width:0.5px;stroke-dasharray:2,4;"/>
        </g>
        <g>
            <path d="M650.3,196L650.3,4.1" style="fill:none;fill-rule:nonzero;stroke:rgb(128,128,128);stroke-width:0.5px;stroke-dasharray:2,4;"/>
        </g>
        <g>
            <path d="M804.1,196L804.1,4.1" style="fill:none;fill-rule:nonzero;stroke:rgb(128,128,128);stroke-width:0.5px;stroke-dasharray:2,4;"/>
        </g>
        <g>
            <path d="M957.9,196L957.9,4.1" style="fill:none;fill-rule:nonzero;stroke:rgb(128,128,128);stroke-width:0.5px;stroke-dasharray:2,4;"/>
        </g>
        <g>
            <rect x="35" y="4.1" width="922.9" height="191.9" style="fill:none;fill-rule:nonzero;stroke:black;stroke-width:1px;"/>
        </g>
        <g id="gnuplot_plot_1">
            <g>
                <path d="M35,100L36.8,97.6L37.2,97.2L40.8,92.4L41.2,92L43,89.6L43.3,89.3L44.8,87.3L45.2,86.9L47.3,84.1L47.6,83.8L48.8,82.2L49.2,81.8L49.8,81L50.1,80.7L51.3,79.1L51.6,78.8L52.5,77.6L53.2,76.9L53.8,76.1L54.1,75.8L55,74.6L55.3,74.3L55.9,73.5L56.2,73.2L56.5,72.8L56.8,72.5L57.1,72.1L57.8,71.4L58.1,71L58.4,70.7L59,69.9L59.3,69.6L59.6,69.2L59.9,68.9L60.2,68.5L60.5,68.2L60.8,67.8L62.1,66.5L62.4,66.1L62.7,65.8L63,65.4L63.6,64.8L63.9,64.4L64.5,63.8L64.8,63.4L65.1,63.1L65.5,62.8L65.8,62.5L66.1,62.1L67,61.2L67.3,60.8L69.1,59L69.5,58.7L70.1,58.1L70.4,57.7L71,57.1L71.3,56.9L73.1,55.1L73.5,54.8L73.8,54.5L74.1,54.3L75.3,53.1L75.6,52.9L76.2,52.3L76.5,52.1L77.1,51.5L77.5,51.3L77.8,51L78.1,50.8L78.4,50.5L78.7,50.3L79,50L79.3,49.8L79.6,49.5L79.9,49.3L80.2,49L80.5,48.8L80.8,48.5L81.1,48.3L81.5,48.1L81.8,47.8L82.4,47.4L82.7,47.1L83.9,46.3L84.2,46L85.1,45.4L85.5,45.2L88.5,43.2L88.8,43.1L89.1,42.9L89.5,42.7L90.1,42.3L90.4,42.2L91,41.8L91.3,41.7L91.9,41.3L92.2,41.2L92.5,41L92.8,40.9L93.1,40.7L93.5,40.6L93.8,40.4L94.1,40.3L94.4,40.1L95,39.9L95.3,39.7L95.9,39.5L96.2,39.3L97.4,38.9L97.8,38.7L101.4,37.5L101.8,37.5L103,37.1L103.3,37.1L103.9,36.9L104.2,36.9L104.5,36.8L104.8,36.8L105.4,36.6L105.8,36.6L106.1,36.5L106.4,36.5L106.7,36.4L107.3,36.4L107.6,36.3L108.2,36.3L108.5,36.2L109.4,36.2L109.8,36.1L114.1,36.1L114.4,36.2L115.3,36.2L115.6,36.3L116.2,36.3L116.5,36.4L117.1,36.4L117.4,36.5L117.8,36.5L118.1,36.6L118.4,36.6L119,36.8L119.3,36.8L119.6,36.9L119.9,36.9L120.5,37.1L120.8,37.1L121.4,37.3L121.8,37.4L122.1,37.5L122.4,37.5L125.4,38.5L125.8,38.6L126.1,38.7L126.4,38.9L127.6,39.3L127.9,39.5L128.5,39.7L128.8,39.9L129.4,40.1L129.8,40.3L130.1,40.4L130.4,40.6L130.7,40.7L131,40.9L131.3,41L131.6,41.2L131.9,41.3L132.5,41.7L132.8,41.8L133.4,42.2L133.8,42.3L135,43.1L135.3,43.2L137.7,44.8L138.1,45L139.6,46L139.9,46.3L141.1,47.1L141.4,47.4L141.7,47.6L142.1,47.8L142.4,48.1L143,48.5L143.3,48.8L143.6,49L143.9,49.3L144.2,49.5L144.5,49.8L144.8,50L145.1,50.3L145.4,50.5L145.7,50.8L146.1,51L146.4,51.3L146.7,51.5L147.3,52.1L147.6,52.3L148.2,52.9L148.5,53.1L149.7,54.3L150.1,54.5L152.5,56.9L152.8,57.1L153.4,57.7L153.7,58.1L154.1,58.4L156.5,60.8L156.8,61.2L159,63.4L159.3,63.8L159.9,64.4L160.2,64.8L160.8,65.4L161.1,65.8L161.4,66.1L161.7,66.5L162.1,66.8L162.4,67.1L162.7,67.5L163,67.8L163.3,68.2L163.6,68.5L163.9,68.9L164.2,69.2L164.5,69.6L164.8,69.9L165.4,70.7L166.4,71.7L167,72.5L167.3,72.8L167.6,73.2L167.9,73.5L168.5,74.3L168.8,74.6L169.7,75.8L170.1,76.1L171,77.3L171.3,77.6L172.2,78.8L172.5,79.1L173.7,80.7L174.1,81L176.2,83.8L176.5,84.1L178,86.1L178.4,86.5L180.5,89.3L180.8,89.6L182,91.2L182.4,91.6L186,96.4L186.4,96.8L188.8,100L189.1,100.5L190,101.7L190.4,102.1L194,106.9L194.4,107.3L196.8,110.5L197.1,110.8L198,112L198.4,112.4L201.1,116L201.4,116.3L202,117.1L202.4,117.5L203.6,119.1L203.9,119.4L205.1,121L205.4,121.3L206,122.1L206.7,122.8L207.6,124L207.9,124.3L208.8,125.5L209.1,125.8L209.7,126.6L210.7,127.6L211.3,128.4L211.6,128.7L211.9,129.1L212.2,129.4L212.8,130.2L213.1,130.5L213.4,130.9L213.7,131.2L214,131.6L214.4,131.9L214.7,132.3L215,132.6L215.3,133L215.9,133.6L216.2,134L216.5,134.3L216.8,134.7L217.4,135.3L217.7,135.7L219.6,137.6L219.9,138L220.8,138.9L221.1,139.3L222.3,140.5L222.7,140.8L223.9,142L224.2,142.4L224.8,143L225.1,143.2L226.3,144.4L226.7,144.7L227.6,145.6L227.9,145.8L229.1,147L229.4,147.2L230,147.8L230.3,148L230.7,148.3L231,148.6L231.3,148.8L231.6,149.1L231.9,149.3L232.2,149.6L232.5,149.8L232.8,150.1L233.1,150.3L233.4,150.6L233.7,150.8L234,151.1L234.3,151.3L234.7,151.6L235.3,152L235.6,152.3L236.2,152.7L236.5,153L237.7,153.8L238,154.1L238.3,154.3L238.7,154.5L242.3,156.9L242.7,157L243.9,157.8L244.2,157.9L244.8,158.3L245.1,158.4L245.7,158.8L246,158.9L246.3,159.1L246.7,159.2L247,159.4L247.3,159.5L247.6,159.7L247.9,159.8L248.2,160L248.8,160.2L249.1,160.4L249.7,160.6L250,160.8L250.3,160.9L250.7,161L251.3,161.2L251.6,161.4L254.3,162.3L254.7,162.4L255.3,162.6L255.6,162.6L256.8,163L257.1,163L257.7,163.2L258,163.2L258.3,163.3L258.6,163.3L259,163.4L259.3,163.5L259.6,163.5L259.9,163.6L260.2,163.6L260.5,163.7L261.1,163.7L261.4,163.8L262,163.8L262.3,163.9L263.3,163.9L263.6,164L267.9,164L268.2,163.9L269.1,163.9L269.4,163.8L270,163.8L270.3,163.7L271,163.7L271.3,163.6L271.6,163.6L271.9,163.5L272.2,163.5L272.8,163.3L273.1,163.3L273.4,163.2L273.7,163.2L274.3,163L274.6,163L275,162.9L275.9,162.6L276.2,162.6L278.6,161.8L279,161.7L279.9,161.4L280.2,161.2L281.4,160.8L281.7,160.6L282.3,160.4L282.6,160.2L283,160.1L283.3,160L283.6,159.8L283.9,159.7L284.2,159.5L284.5,159.4L284.8,159.2L285.1,159.1L285.4,158.9L285.7,158.8L286.3,158.4L286.6,158.3L287,158.1L287.3,157.9L287.6,157.8L288.8,157L289.1,156.9L290.6,155.9L291,155.7L293.4,154.1L293.7,153.8L294.6,153.2L295,153L295.3,152.7L295.9,152.3L296.2,152L296.8,151.6L297.1,151.3L297.4,151.1L297.7,150.8L298,150.6L298.3,150.3L298.6,150.1L298.9,149.8L299.3,149.6L299.6,149.3L299.9,149.1L300.2,148.8L300.5,148.6L301.1,148L301.4,147.8L302,147.2L302.3,147L302.9,146.4L303.3,146.1L303.6,145.8L303.9,145.6L306.3,143.2L306.6,143L306.9,142.7L307.3,142.4L307.6,142L310.3,139.3L310.6,138.9L310.9,138.6L311.3,138.3L311.6,138L311.9,137.6L312.8,136.7L313.1,136.3L313.7,135.7L314,135.3L314.6,134.7L314.9,134.3L315.3,134L315.6,133.6L316.2,133L316.5,132.6L316.8,132.3L317.1,131.9L317.4,131.6L317.7,131.2L318,130.9L318.3,130.5L318.6,130.2L318.9,129.8L319.6,129.1L319.9,128.7L320.2,128.4L320.8,127.6L321.1,127.3L321.4,126.9L321.7,126.6L322.3,125.8L322.6,125.5L322.9,125.1L323.3,124.7L323.6,124.3L323.9,124L324.8,122.8L325.1,122.5L326,121.3L326.3,121L326.9,120.2L327.3,119.8L327.6,119.4L327.9,119.1L330,116.3L330.3,116L330.9,115.2L331.3,114.8L334.3,110.8L334.6,110.5L334.9,110.1L335.3,109.7L339.2,104.5L339.6,104.1L342.6,100.1L342.9,99.6L343.2,99.2L343.6,98.8L347.2,94L347.6,93.6L350.6,89.6L350.9,89.3L351.2,88.9L351.6,88.5L354.9,84.1L355.6,83.4L357.4,81L357.7,80.7L358.9,79.1L359.6,78.4L360.2,77.6L360.5,77.3L361.4,76.1L361.7,75.8L362.6,74.6L362.9,74.3L363.2,73.9L363.9,73.2L364.2,72.8L364.5,72.5L365.1,71.7L365.4,71.4L365.7,71L366,70.7L366.6,69.9L366.9,69.6L367.2,69.2L367.6,68.9L367.9,68.5L368.2,68.2L368.5,67.8L368.8,67.5L369.1,67.1L369.7,66.5L370,66.1L370.3,65.8L370.6,65.4L372.2,63.8L372.5,63.4L373.4,62.5L373.7,62.1L374.6,61.2L374.9,60.8L375.2,60.5L375.6,60.2L377.7,58.1L378,57.7L378.6,57.1L378.9,56.9L379.5,56.3L379.9,56L381.4,54.5L381.7,54.3L382.9,53.1L383.2,52.9L383.5,52.6L383.9,52.3L384.2,52.1L384.8,51.5L385.1,51.3L385.4,51L385.7,50.8L386,50.5L386.3,50.3L386.6,50L386.9,49.8L387.2,49.5L387.5,49.3L387.9,49L388.2,48.8L388.5,48.5L389.1,48.1L389.4,47.8L390,47.4L390.3,47.1L391.5,46.3L391.9,46L395.5,43.6L395.9,43.4L396.2,43.2L396.5,43.1L397.7,42.3L398,42.2L398.6,41.8L398.9,41.7L399.5,41.3L399.9,41.2L400.2,41L400.5,40.9L400.8,40.7L401.1,40.6L401.4,40.4L401.7,40.3L402,40.1L402.6,39.9L402.9,39.7L403.5,39.5L403.9,39.3L405.1,38.9L405.4,38.7L407.5,38L407.9,37.9L409.1,37.5L409.4,37.5L410.6,37.1L410.9,37.1L411.5,36.9L411.9,36.9L412.2,36.8L412.5,36.8L413.1,36.6L413.4,36.6L413.7,36.5L414,36.5L414.3,36.4L414.9,36.4L415.2,36.3L415.9,36.3L416.2,36.2L417.1,36.2L417.4,36.1L421.7,36.1L422,36.2L422.9,36.2L423.2,36.3L423.8,36.3L424.2,36.4L424.8,36.4L425.1,36.5L425.4,36.5L425.7,36.6L426,36.6L426.6,36.8L426.9,36.8L427.2,36.9L427.5,36.9L427.8,37L428.2,37.1L428.5,37.1L429.7,37.5L430,37.5L431.8,38.1L432.2,38.2L433.7,38.7L434,38.9L435.2,39.3L435.5,39.5L435.8,39.6L436.2,39.7L436.5,39.9L437.1,40.1L437.4,40.3L437.7,40.4L438,40.6L438.3,40.7L438.6,40.9L438.9,41L439.2,41.2L439.5,41.3L439.8,41.5L440.2,41.7L440.5,41.8L441.1,42.2L441.4,42.3L442.6,43.1L442.9,43.2L443.8,43.8L444.2,44L447.2,46L447.5,46.3L447.8,46.5L448.2,46.7L448.8,47.1L449.1,47.4L449.7,47.8L450,48.1L450.6,48.5L450.9,48.8L451.2,49L451.5,49.3L451.8,49.5L452.2,49.8L452.5,50L452.8,50.3L453.1,50.5L453.4,50.8L453.7,51L454,51.3L454.3,51.5L454.9,52.1L455.2,52.3L455.8,52.9L456.2,53.1L457.4,54.3L457.7,54.5L460.1,56.9L460.5,57.1L461.1,57.7L461.4,58.1L465.4,62.1L465.7,62.5L466.6,63.4L466.9,63.8L467.5,64.4L467.8,64.8L468.1,65.1L468.5,65.4L468.8,65.8L469.1,66.1L469.4,66.5L470,67.1L470.3,67.5L470.6,67.8L470.9,68.2L471.2,68.5L471.5,68.9L471.8,69.2L472.1,69.6L472.5,69.9L473.1,70.7L473.4,71L473.7,71.4L474,71.7L474.6,72.5L474.9,72.8L475.2,73.2L475.5,73.5L476.1,74.3L476.5,74.6L477.4,75.8L477.7,76.1L478.6,77.3L478.9,77.6L479.8,78.8L480.5,79.5L481.4,80.7L481.7,81L483.8,83.8L484.5,84.5L488.1,89.3L488.5,89.6L492.1,94.4L492.5,94.8L496.1,99.6L496.5,100L496.8,100.5L500.4,105.3L500.8,105.7L504.4,110.5L504.8,110.8L508.4,115.6L509.1,116.3L511.2,119.1L511.5,119.4L512.4,120.6L513.1,121.3L514,122.5L514.3,122.8L515.2,124L515.5,124.3L516.4,125.5L516.8,125.8L517.4,126.6L517.7,126.9L518,127.3L518.3,127.6L518.9,128.4L519.2,128.7L519.5,129.1L519.8,129.4L520.4,130.2L520.8,130.5L521.1,130.9L521.4,131.2L521.7,131.6L522,131.9L522.3,132.3L522.6,132.6L522.9,133L523.5,133.6L523.8,134L524.1,134.3L524.4,134.7L524.8,135L525.1,135.3L525.4,135.7L526,136.3L526.3,136.7L527.2,137.6L527.5,138L531.5,142L531.8,142.4L532.4,143L532.8,143.2L535.2,145.6L535.5,145.8L536.7,147L537.1,147.2L537.7,147.8L538,148L538.6,148.6L538.9,148.8L539.2,149.1L539.5,149.3L539.8,149.6L540.1,149.8L540.4,150.1L540.7,150.3L541.1,150.6L541.4,150.8L541.7,151.1L542,151.3L542.3,151.6L542.9,152L543.2,152.3L543.8,152.7L544.1,153L544.7,153.4L545.1,153.6L545.4,153.8L545.7,154.1L548.7,156.1L549.1,156.3L550,156.9L550.3,157L551.5,157.8L551.8,157.9L552.4,158.3L552.7,158.4L553.1,158.6L553.4,158.8L553.7,158.9L554,159.1L554.3,159.2L554.6,159.4L554.9,159.5L555.2,159.7L555.5,159.8L555.8,160L556.4,160.2L556.7,160.4L557.1,160.5L557.4,160.6L557.7,160.8L558.9,161.2L559.2,161.4L560.7,161.9L561.1,162L562.9,162.6L563.2,162.6L564.4,163L564.7,163L565.1,163.1L565.4,163.2L565.7,163.2L566,163.3L566.3,163.3L566.9,163.5L567.2,163.5L567.5,163.6L567.8,163.6L568.1,163.7L568.7,163.7L569.1,163.8L569.7,163.8L570,163.9L570.9,163.9L571.2,164L575.5,164L575.8,163.9L576.7,163.9L577,163.8L577.7,163.8L578,163.7L578.6,163.7L578.9,163.6L579.2,163.6L579.5,163.5L579.8,163.5L580.4,163.3L580.7,163.3L581,163.2L581.4,163.2L582,163L582.3,163L583.5,162.6L583.8,162.6L585,162.2L585.4,162.1L587.5,161.4L587.8,161.2L589,160.8L589.4,160.6L590,160.4L590.3,160.2L590.9,160L591.2,159.8L591.5,159.7L591.8,159.5L592.1,159.4L592.4,159.2L592.7,159.1L593,158.9L593.4,158.8L594,158.4L594.3,158.3L594.9,157.9L595.2,157.8L596.4,157L596.7,156.9L597,156.7L597.4,156.5L601,154.1L601.4,153.8L602.6,153L602.9,152.7L603.5,152.3L603.8,152L604.4,151.6L604.7,151.3L605,151.1L605.4,150.8L605.7,150.6L606,150.3L606.3,150.1L606.6,149.8L606.9,149.6L607.2,149.3L607.5,149.1L607.8,148.8L608.1,148.6L608.7,148L609,147.8L609.4,147.5L609.7,147.2L610,147L611.2,145.8L611.5,145.6L613,144.1L613.4,143.8L614,143.2L614.3,143L614.9,142.4L615.2,142L617.3,139.9L617.7,139.6L618,139.3L618.3,138.9L619.2,138L619.5,137.6L620.4,136.7L620.7,136.3L622.3,134.7L622.6,134.3L622.9,134L623.2,133.6L623.8,133L624.1,132.6L624.4,132.3L624.7,131.9L625,131.6L625.3,131.2L625.7,130.9L626,130.5L626.3,130.2L626.9,129.4L627.2,129.1L627.5,128.7L627.8,128.4L628.4,127.6L628.7,127.3L629,126.9L629.7,126.2L630,125.8L630.3,125.5L631.2,124.3L631.5,124L632.4,122.8L632.7,122.5L633.3,121.7L634,121L635.2,119.4L635.5,119.1L637.3,116.7L638,116L641.3,111.6L641.7,111.2L642,110.8L642.3,110.5L645.3,106.5L645.7,106.1L649.3,101.3L649.7,100.9L650.3,100.1L650.6,99.6L653.3,96L653.7,95.6L657.6,90.4L658,90L658.3,89.6L658.6,89.3L661.6,85.3L662,84.9L662.6,84.1L662.9,83.8L665,81L665.3,80.7L665.6,80.3L666,79.9L666.6,79.1L666.9,78.8L667.8,77.6L668.1,77.3L669,76.1L669.3,75.8L669.6,75.4L670,75L670.3,74.6L670.6,74.3L671.2,73.5L671.5,73.2L671.8,72.8L672.1,72.5L672.7,71.7L673,71.4L673.3,71L674,70.3L674.3,69.9L674.6,69.6L674.9,69.2L675.2,68.9L675.5,68.5L675.8,68.2L676.1,67.8L676.4,67.5L676.7,67.1L677.3,66.5L677.6,66.1L678,65.8L678.3,65.4L678.9,64.8L679.2,64.4L679.8,63.8L680.1,63.4L681,62.5L681.3,62.1L681.6,61.8L682,61.5L682.3,61.2L682.6,60.8L685.3,58.1L685.6,57.7L686,57.4L686.3,57.1L686.6,56.9L689,54.5L689.3,54.3L689.6,54L690,53.7L690.6,53.1L690.9,52.9L691.5,52.3L691.8,52.1L692.4,51.5L692.7,51.3L693,51L693.3,50.8L693.6,50.5L694,50.3L694.3,50L694.6,49.8L694.9,49.5L695.2,49.3L695.5,49L695.8,48.8L696.1,48.5L696.7,48.1L697,47.8L697.6,47.4L697.9,47.1L698.3,46.9L699.2,46.3L699.5,46L701.9,44.4L702.3,44.2L703.8,43.2L704.1,43.1L705.3,42.3L705.6,42.2L705.9,42L706.3,41.8L706.6,41.7L707.2,41.3L707.5,41.2L707.8,41L708.1,40.9L708.4,40.7L708.7,40.6L709,40.4L709.3,40.3L709.6,40.1L709.9,40L710.3,39.9L710.6,39.7L711.2,39.5L711.5,39.3L712.7,38.9L713,38.7L713.9,38.4L714.3,38.3L716.7,37.5L717,37.5L717.9,37.2L718.3,37.1L718.6,37.1L719.2,36.9L719.5,36.9L719.8,36.8L720.1,36.8L720.7,36.6L721,36.6L721.3,36.5L721.6,36.5L721.9,36.4L722.6,36.4L722.9,36.3L723.5,36.3L723.8,36.2L724.7,36.2L725,36.1L729.3,36.1L729.6,36.2L730.6,36.2L730.9,36.3L731.5,36.3L731.8,36.4L732.4,36.4L732.7,36.5L733,36.5L733.3,36.6L733.6,36.6L733.9,36.7L734.3,36.8L734.6,36.8L734.9,36.9L735.2,36.9L735.8,37.1L736.1,37.1L737.3,37.5L737.6,37.5L738.2,37.7L738.6,37.8L741.3,38.7L741.6,38.9L742.2,39.1L742.6,39.2L742.9,39.3L743.2,39.5L743.8,39.7L744.1,39.9L744.7,40.1L745,40.3L745.3,40.4L745.6,40.6L745.9,40.7L746.2,40.9L746.6,41L746.9,41.2L747.2,41.3L747.8,41.7L748.1,41.8L748.7,42.2L749,42.3L750.2,43.1L750.6,43.2L754.2,45.6L754.6,45.8L754.9,46L755.2,46.3L756.4,47.1L756.7,47.4L757.3,47.8L757.6,48.1L758.2,48.5L758.6,48.8L758.9,49L759.2,49.3L759.5,49.5L759.8,49.8L760.1,50L760.4,50.3L760.7,50.5L761,50.8L761.3,51L761.6,51.3L761.9,51.5L762.2,51.8L762.6,52.1L762.9,52.3L763.5,52.9L763.8,53.1L765,54.3L765.3,54.5L766.2,55.4L766.6,55.7L767.8,56.9L768.1,57.1L768.7,57.7L769,58.1L770.2,59.3L770.6,59.6L771.8,60.8L772.1,61.2L773,62.1L773.3,62.5L775.2,64.4L775.5,64.8L776.1,65.4L776.4,65.8L776.7,66.1L777,66.5L777.6,67.1L777.9,67.5L778.2,67.8L778.5,68.2L778.9,68.5L779.2,68.9L779.5,69.2L779.8,69.6L780.1,69.9L780.7,70.7L781,71L781.3,71.4L781.6,71.7L782.2,72.5L783.2,73.5L783.8,74.3L784.1,74.6L785,75.8L785.3,76.1L786.2,77.3L786.9,78L787.5,78.8L787.8,79.1L789,80.7L789.3,81L790.5,82.6L790.9,83L791.5,83.8L791.8,84.1L794.5,87.7L794.9,88.1L795.8,89.3L796.1,89.6L798.5,92.8L798.9,93.2L802.5,98L802.9,98.4L804.1,100L804.4,100.5L806.5,103.3L806.9,103.7L810.5,108.5L810.9,108.9L812.1,110.5L812.4,110.8L814.5,113.6L814.9,114L816.4,116L816.7,116.3L818.8,119.1L819.2,119.4L820.4,121L820.7,121.3L821.6,122.5L821.9,122.8L822.8,124L823.2,124.3L824.1,125.5L824.4,125.8L825,126.6L825.3,126.9L825.6,127.3L825.9,127.6L826.5,128.4L827.5,129.4L828.1,130.2L828.4,130.5L828.7,130.9L829,131.2L829.3,131.6L829.6,131.9L829.9,132.3L830.2,132.6L830.5,133L830.8,133.3L831.2,133.6L831.5,134L831.8,134.3L832.1,134.7L832.7,135.3L833,135.7L833.6,136.3L833.9,136.7L836.1,138.9L836.4,139.3L838.8,141.7L839.2,142L839.5,142.4L840.1,143L840.4,143.2L842.8,145.6L843.2,145.8L844.4,147L844.7,147.2L845.3,147.8L845.6,148L846.2,148.6L846.5,148.8L846.8,149.1L847.2,149.3L847.5,149.6L847.8,149.8L848.1,150.1L848.4,150.3L848.7,150.6L849,150.8L849.3,151.1L849.6,151.3L849.9,151.6L850.5,152L850.8,152.3L851.2,152.5L851.5,152.7L851.8,153L853,153.8L853.3,154.1L854.8,155.1L855.2,155.3L857.6,156.9L857.9,157L859.1,157.8L859.5,157.9L860.1,158.3L860.4,158.4L861,158.8L861.3,158.9L861.6,159.1L861.9,159.2L862.2,159.4L862.5,159.5L862.8,159.7L863.1,159.8L863.5,160L864.1,160.2L864.4,160.4L865,160.6L865.3,160.8L866.5,161.2L866.8,161.4L867.1,161.5L867.5,161.6L870.5,162.6L870.8,162.6L871.1,162.7L871.5,162.8L872.1,163L872.4,163L873,163.2L873.3,163.2L873.6,163.3L873.9,163.3L874.5,163.5L874.8,163.5L875.1,163.6L875.5,163.6L875.8,163.7L876.4,163.7L876.7,163.8L877.3,163.8L877.6,163.9L878.5,163.9L878.8,164L883.1,164L883.5,163.9L884.4,163.9L884.7,163.8L885.3,163.8L885.6,163.7L886.2,163.7L886.5,163.6L886.8,163.6L887.1,163.5L887.5,163.5L888.1,163.3L888.4,163.3L888.7,163.2L889,163.2L889.6,163L889.9,163L891.1,162.6L891.5,162.6L895.1,161.4L895.5,161.2L896.7,160.8L897,160.6L897.6,160.4L897.9,160.2L898.5,160L898.8,159.8L899.1,159.7L899.4,159.5L899.8,159.4L900.1,159.2L900.4,159.1L900.7,158.9L901,158.8L901.6,158.4L901.9,158.3L902.5,157.9L902.8,157.8L903.4,157.4L903.8,157.2L904.1,157L904.4,156.9L907.4,154.9L907.8,154.7L908.7,154.1L909,153.8L910.2,153L910.5,152.7L911.1,152.3L911.4,152L911.8,151.8L912.1,151.6L912.4,151.3L912.7,151.1L913,150.8L913.3,150.6L913.6,150.3L913.9,150.1L914.2,149.8L914.5,149.6L914.8,149.3L915.1,149.1L915.4,148.8L915.8,148.6L916.4,148L916.7,147.8L917.3,147.2L917.6,147L918.8,145.8L919.1,145.6L919.4,145.3L919.8,145L921.6,143.2L921.9,143L922.5,142.4L922.8,142L923.4,141.4L923.8,141.1L925.6,139.3L925.9,138.9L926.8,138L927.1,137.6L927.4,137.3L927.8,137L928.1,136.7L928.4,136.3L929,135.7L929.3,135.3L929.9,134.7L930.2,134.3L930.5,134L930.8,133.6L932.1,132.3L932.4,131.9L932.7,131.6L933,131.2L933.3,130.9L933.6,130.5L933.9,130.2L934.5,129.4L934.8,129.1L935.1,128.7L935.8,128L936.1,127.6L936.4,127.3L936.7,126.9L937,126.6L937.6,125.8L937.9,125.5L938.8,124.3L939.1,124L939.7,123.2L940.4,122.5L941.3,121.3L941.6,121L942.8,119.4L943.1,119.1L943.7,118.3L944.1,117.9L945.3,116.3L945.6,116L947.7,113.2L948.1,112.8L949.6,110.8L949.9,110.5L951.7,108.1L952.1,107.7L955.7,102.9L956.1,102.5L957.9,100.1" style="fill:none;fill-rule:nonzero;stroke:rgb(8,1,11);stroke-width:2px;"/>
            </g>
        </g>
        <g>
            <rect x="35" y="4.1" width="922.9" height="191.9" style="fill:none;fill-rule:nonzero;stroke:black;stroke-width:1px;"/>
        </g>
        <path d="M35,100C955.787,99.801 957.9,100 957.9,100" style="fill:none;stroke:black;stroke-width:1px;stroke-linecap:round;stroke-linejoin:round;stroke-miterlimit:1.5;"/>
        <g transform="matrix(0.904899,-3.58969e-16,1.11441e-16,-1.19091,-81.8386,-69.8909)">
            <path d="M219.238,-82.125L219.238,-78L212,-83.5L219.238,-89L219.238,-84.875L551.762,-84.875L551.762,-89L559,-83.5L551.762,-78L551.762,-82.125L219.238,-82.125Z"/>
        </g>
        <g transform="matrix(0.0118891,0.600887,-0.999804,0.0197821,657.207,-352.56)">
            <path d="M656.487,-64.925L656.487,-62L649,-66.5L656.487,-71L656.487,-68.075L854.513,-68.075L854.513,-71L862,-66.5L854.513,-62L854.513,-64.925L656.487,-64.925Z"/>
        </g>
    </g>
</svg>
